<svg width="20" height="20" viewBox="0 0 20 20" fill="none" xmlns="http://www.w3.org/2000/svg">
    <g clip-path="url(#clip0_33_55)">
        <path d="M19.3147 10.2189C19.3147 9.57316 19.2623 8.92389 19.1506 8.28857H10.1899V11.9468H15.3213C15.1084 13.1267 14.4242 14.1704 13.4224 14.8337V17.2074H16.4837C18.2815 15.5528 19.3147 13.1093 19.3147 10.2189Z" fill="#4285F4" />
        <path d="M10.19 19.5009C12.7522 19.5009 14.9129 18.6596 16.4873 17.2075L13.4259 14.8338C12.5742 15.4132 11.4746 15.7414 10.1935 15.7414C7.71508 15.7414 5.61366 14.0693 4.85967 11.8213H1.70056V14.2683C3.31328 17.4763 6.59805 19.5009 10.19 19.5009V19.5009Z" fill="#34A853" />
        <path d="M4.85612 11.8211C4.45818 10.6413 4.45818 9.36368 4.85612 8.18381V5.73682H1.70051C0.353087 8.42118 0.353087 11.5838 1.70051 14.2681L4.85612 11.8211V11.8211Z" fill="#FBBC04" />
        <path d="M10.19 4.26015C11.5444 4.2392 12.8534 4.74885 13.8343 5.68436L16.5466 2.97207C14.8292 1.35936 12.5497 0.472714 10.19 0.50064C6.59804 0.50064 3.31328 2.52526 1.70056 5.73672L4.85617 8.18372C5.60668 5.9322 7.71159 4.26015 10.19 4.26015V4.26015Z" fill="#EA4335" />
    </g>
    <defs>
        <clipPath id="clip0_33_55">
            <rect width="19" height="19" fill="white" transform="translate(0.5 0.5)" />
        </clipPath>
    </defs>
</svg>